<svg width="47" height="47" viewBox="0 0 47 47" fill="none" xmlns="http://www.w3.org/2000/svg">
<path d="M34.5058 21.052C33.6637 21.052 32.9979 20.3666 32.9979 19.5441C32.9979 18.8195 32.2733 17.3116 31.0591 15.9995C29.8645 14.7266 28.5525 13.9824 27.4558 13.9824C26.6137 13.9824 25.9479 13.297 25.9479 12.4745C25.9479 11.652 26.6333 10.9666 27.4558 10.9666C29.4141 10.9666 31.4704 12.0241 33.272 13.9236C34.9562 15.7057 36.0333 17.9186 36.0333 19.5245C36.0333 20.3666 35.3479 21.052 34.5058 21.052Z" fill="white"/>
<path d="M41.5754 21.0522C40.7334 21.0522 40.0675 20.3667 40.0675 19.5442C40.0675 12.5922 34.4079 6.95216 27.4754 6.95216C26.6334 6.95216 25.9675 6.26675 25.9675 5.44425C25.9675 4.62175 26.6334 3.91675 27.4559 3.91675C36.0725 3.91675 43.0834 10.9276 43.0834 19.5442C43.0834 20.3667 42.3979 21.0522 41.5754 21.0522Z" fill="white"/>
<path opacity="0.4" d="M23.0887 27.828L16.685 34.2317C15.98 33.6051 15.2945 32.9588 14.6287 32.293C12.6116 30.2563 10.7904 28.1217 9.16496 25.8892C7.55913 23.6567 6.26663 21.4242 5.32663 19.2113C4.38663 16.9788 3.91663 14.8442 3.91663 12.8076C3.91663 11.4759 4.15163 10.203 4.62163 9.028C5.09163 7.83341 5.83579 6.73675 6.87371 5.75758C8.12704 4.52383 9.49788 3.91675 10.947 3.91675C11.4954 3.91675 12.0437 4.03425 12.5333 4.26925C13.0425 4.50425 13.4929 4.85675 13.8454 5.36591L18.3887 11.7697C18.7412 12.2592 18.9958 12.7097 19.172 13.1405C19.3483 13.5517 19.4462 13.963 19.4462 14.3351C19.4462 14.8051 19.3091 15.2751 19.035 15.7255C18.7804 16.1759 18.4083 16.6459 17.9383 17.1159L16.45 18.663C16.2345 18.8784 16.1366 19.133 16.1366 19.4463C16.1366 19.603 16.1562 19.7401 16.1954 19.8967C16.2541 20.0534 16.3129 20.1709 16.352 20.2884C16.7045 20.9347 17.3116 21.7767 18.1733 22.7951C19.0545 23.8134 19.9945 24.8513 21.0129 25.8892C21.7179 26.5747 22.4033 27.2405 23.0887 27.828Z" fill="white"/>
<path d="M43.0246 35.8964C43.0246 36.4447 42.9267 37.0126 42.7309 37.561C42.6721 37.7176 42.6134 37.8743 42.535 38.031C42.2021 38.736 41.7713 39.4018 41.2034 40.0285C40.2438 41.086 39.1863 41.8497 37.9917 42.3393C37.9721 42.3393 37.9525 42.3589 37.933 42.3589C36.7775 42.8289 35.5242 43.0835 34.173 43.0835C32.1755 43.0835 30.0409 42.6135 27.7888 41.6539C25.5367 40.6943 23.2846 39.4018 21.0521 37.7764C20.2884 37.2085 19.5246 36.6405 18.8 36.0334L25.2038 29.6297C25.7521 30.041 26.2417 30.3543 26.653 30.5697C26.7509 30.6089 26.8684 30.6676 27.0055 30.7264C27.1621 30.7851 27.3188 30.8047 27.495 30.8047C27.828 30.8047 28.0825 30.6872 28.298 30.4718L29.7863 29.003C30.2759 28.5135 30.7459 28.1414 31.1963 27.9064C31.6467 27.6322 32.0971 27.4951 32.5867 27.4951C32.9588 27.4951 33.3505 27.5735 33.7813 27.7497C34.2121 27.926 34.6625 28.1805 35.1521 28.5135L41.6342 33.1155C42.1434 33.468 42.4959 33.8793 42.7113 34.3689C42.9071 34.8584 43.0246 35.348 43.0246 35.8964Z" fill="white"/>
</svg>
